<?xml version="1.0" encoding="utf-8"?>
<!-- Generator: Adobe Illustrator 23.1.0, SVG Export Plug-In . SVG Version: 6.00 Build 0)  -->
<svg version="1.1" id="Logo" xmlns="http://www.w3.org/2000/svg" xmlns:xlink="http://www.w3.org/1999/xlink" x="0px" y="0px"
	 viewBox="0 0 360 360" style="enable-background:new 0 0 360 360;" xml:space="preserve">
<style type="text/css">
	.st0{fill:#FFFAFA;}
</style>
<path id="Sword_x2F_Pen" class="st0" d="M285.39,72.31L267.86,58.3c-3.77-3.02-9.3-2.4-12.31,1.37l-6.43,8.05l-1.91-1.53
	c-0.86-0.69-2.12-0.55-2.81,0.31l-4.58,5.73L237.03,70c-5.58-4.46-13.75-3.55-18.21,2.03l-52.01,65.06
	c-0.18,0.22-0.34,0.46-0.5,0.69c-14.28-21.37-25.55-39.12-29.63-46.63c-2.41-4.44-3.97-7.47-4.64-8.76l-0.6-1.15l-1.97-0.67
	c-0.97-0.34-2.37-0.83-4.09-1.46c-4.57-1.67-8.99-3.4-13.13-5.14c-11.99-5.04-20.49-9.61-25.25-13.61l-4.98-4.16l0.2,0.44
	l-0.32-0.25l2.77,5.77c2.69,5.6,5.03,14.96,6.94,27.83c0.83,5.56,1.4,10.68,1.73,13.99c0.18,1.82,0.32,3.29,0.4,4.32l0.17,2.08
	l1,0.9c1.09,0.97,3.64,3.23,7.3,6.62c8.18,7.58,30.22,31.33,54.2,58.61l-35.78,44.75c0,0,0,0,0,0c-0.01,0.01-0.02,0.03-0.03,0.04
	c-0.08,0.1-0.14,0.21-0.2,0.32c0,0.01-0.01,0.02-0.02,0.03l-26.82,56.35c-0.39,0.83-0.17,1.82,0.54,2.4l-5.99,15.9
	c-0.31,0.81-0.05,1.73,0.62,2.27l1.67,1.34c0.36,0.29,0.81,0.44,1.25,0.44c0.38,0,0.77-0.11,1.1-0.33l14.19-9.35
	c0.36,0.28,0.79,0.42,1.22,0.42c0.44,0,0.87-0.14,1.24-0.43l49.06-38.56c0.03-0.02,0.05-0.05,0.08-0.08
	c0.09-0.08,0.18-0.16,0.25-0.25c0,0,0,0,0,0l30-37.53c3.53,4.23,6.99,8.41,10.33,12.5l0.21,0.25l2.34-1.88l-0.19-0.24
	c-1.54-2.02-5.66-7.34-10.41-13.48l3.77-4.72c3.62,5.62,6.45,10.48,8.44,14.54c1.59,3.23,2.63,5.91,3.11,7.98
	c-3.09,1.12-6.18,2.23-9.28,3.35C195,233,194,233,190.65,233.54c-0.58,0.04-1.18,0.06-1.81,0.07c-0.7,0.01-1.37,0.01-2.01-0.01
	l-0.64-0.02l-0.45,0.45c-1.72,1.69-4.06,3.37-6.76,4.84l-2.99,1.62l3.21,1.11c4.69,1.62,9.59,2.43,14.47,2.43
	c5.34,0,10.67-0.97,15.7-2.9l0.33-0.12l5.77,2.04l12.9,14.59h0l6.27,7.09h0l13.88,15.71c-0.4,0.14-0.8,0.28-1.21,0.39L246.8,281
	l-0.01-0.01l-0.57,0.13c-1.25,0.28-2.48,0.44-3.66,0.47l-5.13,0.13l2.21,1.34l0.13,0.08l2.05,1.23c7.83,4.72,16.19,8.67,24.86,11.72
	l2.2,0.77l-0.21-2.32c-0.81-9.15-2.57-18.23-5.21-26.99l-0.7-2.33l0.04-0.25l-0.08,0.13l-0.75-2.47l-1.4,4.94
	c-0.32,1.13-0.78,2.28-1.36,3.43l-0.26,0.52l0,0.01l-0.28,0.47c-0.21,0.35-0.43,0.7-0.68,1.07l-11.89-17.48l0,0l-4.48-6.59
	l-0.09-0.14l-4.4-6.47l-0.24-0.35l-4.27-6.28l-0.39-0.57l-2.11-10.57c5.59-8.28,8.2-18.3,7.36-28.32l-0.28-3.39l-2.31,2.49
	c-2.09,2.25-4.29,4.11-6.36,5.36l-0.54,0.33l-0.14,0.62c-0.32,1.39-0.65,2.6-1,3.68L226,208l-0.29,0.47
	c-0.41,0.99-0.88,1.99-1.39,2.98c-1.52,2.95-3.38,5.69-5.54,8.16c-1.89-0.97-4.23-2.64-6.97-4.98c-3.69-3.15-8.05-7.46-13.01-12.86
	l3.85-4.82c5.83,7.49,11.29,14.47,13.14,16.82l0.21,0.27l2.38-1.82l-0.19-0.26c-4.28-5.8-8.68-11.85-13.11-18.04l77.47-96.91
	c0.33-0.41,0.48-0.94,0.42-1.47c-0.06-0.53-0.32-1.01-0.74-1.34l-1.92-1.53l6.43-8.05c1.46-1.83,2.12-4.11,1.86-6.44
	C288.37,75.86,287.22,73.77,285.39,72.31z M169.93,139.59l52.01-65.06c3.08-3.86,8.73-4.49,12.59-1.4l2.78,2.22l-61.36,76.75
	c-2.45-3.61-4.85-7.15-7.17-10.62C169.08,140.81,169.46,140.17,169.93,139.59z M111.08,76.75c4.19,1.76,8.65,3.5,13.26,5.19
	c1.73,0.63,3.15,1.13,4.13,1.47l0.86,0.3l0.04,0.07c0.67,1.3,2.24,4.34,4.67,8.81c4.19,7.71,15.92,26.15,30.69,48.24
	c-0.14,0.4-0.26,0.8-0.37,1.21c-15.3-20.82-27.85-39.34-38.01-56.07l-0.27-0.43l-0.44-0.24c-1.54-0.81-3.1-1.62-4.69-2.45
	c-4.73-2.46-9.92-5.15-15.79-8.68C107.04,75.01,109.01,75.87,111.08,76.75z M119.58,85.51c1.47,0.76,2.91,1.51,4.39,2.29
	c10.63,17.49,23.87,36.93,40.1,58.87c0.4,3.42,2.09,6.48,4.78,8.63c0.37,0.29,0.81,0.44,1.25,0.44c0.22,0,0.44-0.05,0.65-0.12
	c0.39,0.51,0.78,1.03,1.17,1.55l-4.2,5.26c-8.02-10.58-16.12-21.28-24.23-31.98c-13.97-18.43-27.94-36.86-41.4-54.65
	C108.66,79.84,114.39,82.81,119.58,85.51z M138.19,133.68c8.77,11.01,17.54,22.02,26.2,32.89l-4.18,5.22
	c-21.68-27.29-40.77-49.31-58.1-67.01c-0.38-1.58-0.76-3.19-1.14-4.83c-1.33-5.69-2.8-11.98-5.08-19.36
	C109.66,97.86,123.92,115.77,138.19,133.68z M104.26,115.73c-3.69-3.41-6.25-5.69-7.35-6.66l-0.1-0.09l-0.07-0.91
	c-0.09-1.04-0.22-2.53-0.41-4.37c-0.34-3.34-0.92-8.51-1.75-14.14c-0.33-2.22-0.68-4.35-1.03-6.37c1.96,6.56,3.29,12.25,4.5,17.43
	c0.41,1.75,0.81,3.47,1.24,5.25l0.1,0.39l0.35,0.37c17.26,17.61,36.32,39.58,58.01,66.88C134.05,146.59,112.37,123.25,104.26,115.73
	z M92.81,295.23l4.58-12.16l3.14,2.51l3.14,2.51L92.81,295.23z M108.19,286.57l-10.32-8.25l25.05-52.64l31.11,24.87L108.19,286.57z
	 M156.93,247.75l-31.92-25.52l34.08-42.63c9.03,10.31,18.27,21.05,27.09,31.56L156.93,247.75z M188.57,208.18
	c-7.69-9.92-16.1-20.77-17.8-22.95c-2.71-3.49-5.37-6.88-8.01-10.21l4.18-5.23c6.43,8.07,12.79,16.04,19.02,23.86
	c2.4,3.37,4.59,6.56,6.59,9.55L188.57,208.18z M259.85,277.58c0.14-0.24,0.27-0.49,0.39-0.74c0.46,2.3,0.76,4.52,0.91,6.6
	c0.09,1.26,0.12,2.46,0.1,3.59c-2.43-0.56-5.66-1.59-9.63-3.49C255.09,282.82,258.03,280.73,259.85,277.58z M253.54,271.84
	l1.37,2.02c-2.01,0.19-4.29,0.03-6.69-0.46c-0.81-0.17-1.62-0.37-2.48-0.63l-1.65-1.86c0.23,0.05,0.46,0.1,0.69,0.15
	C247.87,271.69,250.87,271.96,253.54,271.84z M249.11,265.33l1.35,1.99c-2.13,0.27-4.64,0.14-7.28-0.4
	c-1.15-0.24-2.3-0.55-3.43-0.92l-1.56-1.77c0.52,0.13,1.04,0.24,1.56,0.35C243.08,265.25,246.29,265.51,249.11,265.33z
	 M244.67,258.8l1.32,1.95c-2.24,0.37-4.99,0.27-7.85-0.31c-1.5-0.31-3-0.74-4.44-1.28l-1.45-1.64c0.81,0.21,1.63,0.41,2.45,0.58
	C238.29,258.82,241.71,259.07,244.67,258.8z M240.22,252.26l1.29,1.9c-2.32,0.49-5.27,0.43-8.4-0.21c-1.9-0.39-3.75-0.96-5.51-1.71
	l-1.29-1.46c1.11,0.32,2.24,0.6,3.37,0.83C233.51,252.39,237.13,252.62,240.22,252.26z M235.76,245.7l1.26,1.85
	c-2.39,0.63-5.58,0.61-8.94-0.08c-2.3-0.47-4.6-1.24-6.66-2.23l-1.08-1.23c1.41,0.44,2.85,0.82,4.31,1.11
	C228.68,245.95,232.58,246.15,235.76,245.7z M231.29,239.13l1.22,1.79c-2.42,0.78-5.81,0.82-9.47,0.07
	c-2.5-0.51-4.94-1.35-7.11-2.45c0.32-0.17,0.64-0.35,0.96-0.54c0.91,0.25,1.82,0.46,2.71,0.65
	C223.9,239.52,228.01,239.69,231.29,239.13z M221.31,234.97c1.6-1.27,3.06-2.64,4.37-4.08l2.29,3.37
	C226.25,234.92,223.92,235.17,221.31,234.97z M227.62,212.76c0.36-1.13,0.68-2.27,0.94-3.37L229,207l2.43-1.68
	c-0.14,4.97-0.96,9.65-2.41,13.81L229,219l-4.36,8.48c-1.54,1.93-3.39,3.74-5.49,5.38c-0.81,0.63-1.66,1.23-2.54,1.79l-0.72,0.45
	c-1.1,0.67-2.21,1.25-3.31,1.75l-0.56,0.25l-7.91,1.88c-4.58,0.48-9.57,0.14-14.68-1.02L192,236l2.09,0.18
	c1.14,0.02,2.32-0.01,3.5-0.08c3.96-0.24,7.68-1.01,11.14-2.34l0.11-0.04c2.79-1.09,5.35-2.54,7.63-4.31
	C221.62,225.41,225.37,219.81,227.62,212.76z M209.87,216.91c3.46,2.95,6.39,4.94,8.71,5.91l0.28,0.12
	c-1.27,1.53-2.68,2.89-4.23,4.1c-1.53,1.19-3.21,2.22-5.01,3.08l-0.04-0.29c-0.37-2.49-1.58-5.82-3.58-9.9
	c-2.14-4.35-5.2-9.6-9.16-15.68l0.08-0.11C201.84,209.48,206.18,213.76,209.87,216.91z M196.09,198.77
	c-2.13-2.39-4.36-4.95-6.69-7.7c-6.3-8.32-12.72-16.8-19.21-25.36l4.2-5.25c3.41,4.48,6.92,9.06,10.56,13.75
	c1.44,1.86,8.26,10.62,15.18,19.51L196.09,198.77z M202.67,190.53c-8.24-11.57-16.54-23.51-24.36-34.98l63.38-79.27c0,0,0,0,0,0
	s0,0,0,0l4.58-5.73l1.91,1.53c0,0,0,0,0,0l28.09,22.46c0,0,0,0,0,0l1.91,1.53L202.67,190.53z M283.64,82.12l-6.43,8.05l-24.97-19.96
	l6.43-8.05c1.64-2.05,4.64-2.38,6.69-0.74l17.53,14.01c0.99,0.79,1.62,1.93,1.76,3.19C284.79,79.89,284.43,81.13,283.64,82.12z"/>
<path id="Background" class="st0" d="M348.37,178.43c0-92.6-75.34-167.94-167.94-167.94S12.49,85.83,12.49,178.43
	c0,52.66,24.37,99.71,62.42,130.53c-3.47,1.01-6.94,2.06-10.41,3.18l-0.69,0.22v34.62l1.35-0.51c15.9-6.02,31.82-10.78,47.72-14.31
	c20.68,9.12,43.53,14.2,67.55,14.2c23.93,0,46.71-5.05,67.33-14.11c15.56,3.52,31.05,8.24,46.47,14.21l1.36,0.53v-34.64l-0.7-0.22
	c-3.12-0.99-6.24-1.93-9.36-2.84C323.82,278.49,348.37,231.28,348.37,178.43z M180.43,339.37c-19.33,0-37.87-3.44-55.05-9.72
	c36.8-6.66,73.53-6.64,109.94,0.06C218.18,335.94,199.7,339.37,180.43,339.37z M293.6,313.82v30.26
	c-37.38-14.29-75.47-21.54-113.26-21.54c-37.79,0-76.32,7.25-114.53,21.55v-30.27C140.96,289.77,217.59,289.77,293.6,313.82z
	 M277.17,306.95c-64.73-17.42-129.79-17.53-193.92-0.33c-38.71-29.42-63.76-75.93-63.76-128.19c0-88.74,72.2-160.94,160.94-160.94
	c88.74,0,160.94,72.2,160.94,160.94C341.37,230.89,316.13,277.55,277.17,306.95z"/>
<g id="Name">
	<path id="Brock" class="st0" d="M163.17,314.12c-0.1-0.05-0.21-0.1-0.34-0.13c-2.77-0.71-5.55-1.42-8.3-2.2
		c1.47-1.75,3-3.46,4.34-5.32c1-1.4,1.92-2.88,2.58-4.47c0.54-1.31,1.15-3.43,0.13-4.66c-1.06-1.28-2.49-0.46-3.03,0.78
		c-0.58,1.32-1.18,2.59-1.95,3.82c-1.07,1.71-2.29,3.33-3.54,4.91c-0.08-0.72-0.17-1.43-0.3-2.14c-0.33-1.92-0.93-6.22-3.84-5.07
		c-1.16,0.46-1.7,1.59-1.44,2.78c0.31,1.36,0.8,2.67,1.09,4.04c0.31,1.46,0.47,2.93,0.55,4.42c0,0,0.02,0.39,0.03,0.67
		c-0.03,0.03-0.05,0.06-0.09,0.1c-0.08,0.1-0.15,0.2-0.21,0.31c-0.58,0.16-1.11,0.42-1.61,0.75c-0.67-0.02-1.38,0.37-1.8,1.14
		c-0.8,1.44-2.06,2.74-3.5,3.59c-1.43,0.84-3.58,1.28-4.74-0.21c-1.11-1.43-0.84-3.79-0.61-5.47c0.24-1.75,0.68-3.61,1.56-5.16
		c0.18-0.31,0.57-1.07,0.99-1.15c0.49-0.09,0.46,0.69,0.44,1.14c-0.03,0.73-0.04,1.4,0.6,1.9c0.64,0.5,1.51,0.45,2.12-0.05
		c1.21-1,1.35-3.1,0.93-4.49c-0.58-1.93-2.27-3.25-4.32-3.01c-1.76,0.21-2.99,1.5-3.92,2.91c-2.78,0.44-5.56,0.89-8.34,1.33
		c-2.09-1-4.49-1.23-6.78-0.87c-0.75-0.83-2.2-0.99-3.37-0.17c-0.99,0.69-1.65,2.04-2.22,3.07c-0.62,1.11-1.16,2.27-1.6,3.47
		c-1.09,2.94-1.71,6.75-0.51,9.7c-1.25-0.4-2.86-0.38-3.83-0.48c-1.58-0.16-3.16-0.28-4.74-0.37c1.69-1.17,3.32-2.44,4.52-4.05
		c2.16-2.9,2.02-7.33-1.54-9.06c-3.46-1.69-7.76-0.68-11.24,0.4c-1.83,0.57-3.6,1.27-5.29,2.17c-0.89,0.48-1.92,1.01-2.72,1.73
		c-2-0.78-4.55,0.11-6.42,0.91c-2.62,1.12-5.11,2.67-7.35,4.42c-0.81,0.64-1.85,1.41-2.16,2.45c-0.29,0.98,0.24,2.05,1.16,2.48
		c1.24,0.58,2.17-0.21,2.99-1.07c0.35-0.36,0.73-0.7,1.12-1.01c0.33,1.54,0.75,3.05,1.26,4.58c0.84,2.49,1.99,5.19,1.98,7.84
		c-0.01,1.24,0.52,2.31,1.88,2.47c0.64,0.07,1.18-0.1,1.6-0.43c1.39,0.89,2.96-0.26,4.02-1.23c2.72-2.49,5.36-6.19,6.32-9.8
		c0.47-1.76,0.26-4.11-1.45-5.16c-0.91-0.57-1.96-0.66-3-0.53c0.19-0.71,0.29-1.44,0.29-2.19c0.73-0.44,1.37-1.11,2.15-1.59
		c0.85-0.53,1.74-0.94,2.65-1.3c0.56,2.73,1.17,5.45,1.81,8.18c-0.4,1.04-0.02,2.19,0.82,2.99c0.37,1.64,0.76,3.31,1.27,4.9
		c0.28,0.87,0.69,1.81,1.65,2.1c0.99,0.29,2.12-0.31,2.62-1.15c0.78-1.3-0.28-2.59-0.62-3.86c-0.1-0.36-0.19-0.72-0.29-1.07
		c2.16,0.09,4.33,0.28,6.44,0.74c1.13,0.24,2.33,0.84,3.5,0.83c0.83-0.01,1.46-0.41,1.85-1.02c1.05,0.09,2.09,0.11,3.16,0.18
		c-0.2-0.01,0.32,0.06,0.53,0.1c0.33,0.06,0.68,0.12,1.02,0.14c0.7,0.06,1.39,0.01,2.08-0.11c2.58-0.44,4.91-1.98,6.63-3.92
		c2.48-2.8,4.58-7.77,3.29-11.55c0.55,0.03,1.1,0.03,1.65-0.03c0.39-0.04,0.78-0.12,1.16-0.21c-0.46,1.73-0.75,3.51-0.8,5.28
		c-0.08,2.64,0.49,5.45,2.71,7.11c2.27,1.7,5.46,1.7,7.97,0.56c1.41-0.64,2.57-1.7,3.6-2.85c0.82-0.92,1.72-1.99,2.19-3.18
		c0.17-0.08,0.33-0.17,0.5-0.25c0.03,0.62,0.05,1.25,0.04,1.87c-0.01,1.48-0.4,3.53,1.44,4.08c3,0.91,3.14-2.77,2.99-5.43
		c2.49,0.77,4.91,1.81,7.47,2.34c1.21,0.25,2.67,0.53,3.44-0.72C165.5,315.99,164.64,314.69,163.17,314.12z M123.86,317.68
		c-1.46,1.51-4.1,3.19-6.31,2.36c-1.84-0.69-1.76-3.76-1.51-5.41c0.19-1.27,0.57-2.55,1.09-3.73c0.28-0.62,0.59-1.22,0.94-1.81
		c0.07-0.13,0.16-0.25,0.24-0.38c0.19,0.08,0.39,0.14,0.62,0.17c0.82,0.1,1.68-0.09,2.48-0.26c1.12-0.23,2.07-0.39,3.16,0.11
		c1.11,0.51,1.55,1.31,1.75,2.48C126.66,313.58,125.46,316.02,123.86,317.68z M103.85,310.01c0.15,0.04,0.3,0.09,0.45,0.14
		c0,0,0.05,0.02,0.09,0.04c0.04,0.02,0.13,0.07,0.15,0.08c0.08,0.05,0.3,0.18,0.29,0.18c-0.04-0.03,0.11,0.11,0.16,0.16
		c0.02,0.05,0.1,0.16,0.12,0.17c0.01,0.03,0.02,0.06,0.02,0.06c0.02,0.09,0.04,0.18,0.06,0.27c-0.01,0,0,0.34,0,0.39
		c0,0.06-0.01,0.13-0.01,0.19c0,0.01-0.01,0.03-0.02,0.07c-0.09,0.38-0.16,0.56-0.33,0.87c-0.61,1.07-1.63,1.93-2.57,2.69
		c-0.63,0.51-1.39,1.02-2.1,1.52c-0.08,0.05-0.16,0.1-0.24,0.15c-0.12-0.5-0.24-1-0.36-1.5c-0.22-0.95-0.45-1.9-0.67-2.86
		c-0.11-0.46-0.22-0.93-0.33-1.39c-0.05-0.24-0.1-0.48-0.15-0.73c-0.01-0.08-0.03-0.16-0.04-0.24c0.84-0.2,1.71-0.34,2.5-0.41
		c0.71-0.06,1.43-0.08,2.14,0C103.26,309.87,103.54,309.92,103.85,310.01z M84.06,328.86c-0.28-1.34-0.72-2.68-1.15-3.97
		c0.98-0.67,1.95-1.34,2.88-2.09c0.59-0.48,1.19-0.92,1.87-1.26c0.41-0.21,0.85-0.37,1.29-0.5c0.19-0.05,0.38-0.12,0.57-0.15
		c0.05-0.01,0.11,0,0.16-0.01c-0.1,0.64-0.45,1.83-0.53,1.99c-0.39,0.86-0.85,1.68-1.38,2.46c-0.51,0.75-1.08,1.48-1.71,2.14
		c-0.57,0.6-1.25,0.89-1.92,1.33C84.11,328.82,84.08,328.84,84.06,328.86z M85.36,314.62c0.02,0,0.03,0,0.04,0c0,0,0,0,0,0.01
		c0,0.02,0.02,0.12,0.02,0.19c0.01,0.22,0.01,0.43-0.01,0.65c0,0.03-0.01,0.06-0.01,0.08c-0.03,0.13-0.06,0.26-0.09,0.39
		c-0.14,0.51-0.29,0.84-0.58,1.35c-0.6,1.02-1.15,1.7-2.05,2.55c-0.4,0.38-0.8,0.73-1.2,1.01c-0.2-0.67-0.4-1.34-0.59-2.01
		c-0.07-0.25-0.14-0.51-0.2-0.77c-0.03-0.13-0.05-0.26-0.08-0.39c-0.01-0.03-0.03-0.17-0.04-0.24c-0.04-0.36-0.07-0.72-0.09-1.08
		c1.35-0.75,2.85-1.38,4.34-1.69c0.04-0.01,0.3-0.05,0.24-0.04C85,314.63,85.35,314.62,85.36,314.62z"/>
	<path id="Creates" class="st0" d="M288.49,313.06c-2.73-0.72-5.74-0.62-8.45,0.13c-2.29,0.63-5.05,1.94-5.54,4.54
		c-0.53,2.82,1.84,4.7,3.88,6.15c1.15,0.82,2.37,1.55,3.51,2.39c0.64,0.47,1.93,1.35,1.82,2.27c-0.15,1.2-1.95,1.77-2.95,1.81
		c-0.89,0.03-2.24-0.19-3.16-0.73c-0.02-0.22-0.06-0.44-0.16-0.67c-0.33-0.76-1.21-1.05-1.98-0.91c-0.01-0.01-0.01-0.01-0.02-0.02
		c-0.25-0.3-0.56-0.55-0.87-0.8c-0.46-0.38-0.96-0.74-1.38-1.16c-0.41-1.28-1.76-2.27-3.14-1.81c-0.87,0.29-1.29,1.11-1.15,1.98
		c0.01,0.07,0.06,0.3,0.11,0.5c-0.12,0.04-0.23,0.08-0.35,0.1c-1.69,0.39-3.58-0.08-5.14-0.87c-0.04-1.55,0.15-3.1,0.42-4.63
		c1.76,0.17,3.55,0.29,5.28,0.03c1.78-0.27,4.42-1.35,3.28-3.67c-0.98-2-3.28-0.31-4.82-0.32c-1-0.01-2.01-0.08-3.02-0.17
		c0.17-0.86,0.35-1.73,0.53-2.59c2.3,0.31,4.62,0.47,6.94,0.33c1.22-0.07,2.87-0.06,3.87-0.88c0.97-0.79,0.92-2.01,0.13-2.81
		c-0.08-0.09-0.18-0.17-0.29-0.25c-0.02-0.01-0.03-0.03-0.05-0.04c-0.4-0.28-0.8-0.32-1.14-0.21c-3.14-0.06-6.21-0.1-9.31-0.61
		c-0.6-0.69-1.67-0.78-2.66-0.39c-0.57-0.09-1.15-0.14-1.71-0.07c-0.31-0.24-0.62-0.47-0.94-0.71c-0.1-1.52-2.03-2.3-3.43-2.51
		c-1.62-0.25-3.25-0.2-4.88-0.28c-0.29-0.76-0.9-1.36-1.81-1.55c-1.17-0.25-1.73,0.5-2.05,1.4c-2.33-0.15-4.65-0.31-6.96-0.61
		c-1.19-0.15-2.4-0.16-2.9,1.17c-0.27,0.71-0.13,1.37,0.21,1.94c-0.39,0.71-0.79,1.42-1.18,2.12c-0.09,0.02-0.17,0.04-0.26,0.06
		c-0.54-3.54-1.97-11.15-5.33-9c-0.97-0.21-1.86-0.02-2.49,1.02c-0.5,0.82-0.83,1.77-1.21,2.64c-0.86,1.96-1.72,3.93-2.65,5.85
		c-2.14,0.02-5.33,0.02-5.33,2.51c0,1.85,1.36,2.2,2.85,2.15c-0.59,1.11-1.17,2.22-1.71,3.35c-0.2-0.15-0.39-0.3-0.58-0.45
		c0.66-1.45,0.59-3.2-1.18-3.94c-0.91-0.38-2.13-0.25-2.71,0.62c-0.26,0.39-0.33,0.85-0.23,1.3c0.02,0.11,0.12,0.48,0.24,0.68
		c-1.62,0.82-3.84,0.62-5.55,0.02c-0.27-1.52-0.27-3.09-0.21-4.64c3.38-0.18,10.09-0.89,8.08-4.64c-1.12-2.1-3.22-0.1-4.72,0.16
		c-1.05,0.18-2.15,0.25-3.24,0.3c0.05-0.88,0.1-1.76,0.16-2.64c2.01-0.02,4.03-0.15,6.01-0.49c1.66-0.29,5.98-0.82,5.06-3.53
		c-0.68-2-3.8-0.91-5.25-0.73c-2.06,0.25-4.12,0.33-6.19,0.29c-0.67-0.65-1.79-0.48-2.72-0.01c-1.69,0.02-4.09,0.58-3.61,2.77
		c0.26,1.23,1.26,1.53,2.32,1.63c-0.05,0.98-0.1,1.97-0.16,2.95c-1.24,0-2.49,0.16-2.86,1.47c-0.3,1.07,0.2,2.18,1.21,2.65
		c0.45,0.21,0.98,0.26,1.52,0.25c-0.04,1.09-0.07,2.2,0.02,3.29c-0.46-0.13-0.92-0.27-1.37-0.4c-0.74-1.41-3.12-1.93-4.58-2.47
		c-1.49-0.55-3-1.06-4.51-1.54c2.05-0.76,4.05-1.65,5.66-3.04c2.72-2.36,3.3-6.6,0.35-9.03c-2.85-2.35-7.1-2.46-10.61-2.31
		c-1.91,0.08-3.82,0.3-5.69,0.75c-1.04,0.25-2.28,0.52-3.31,1.07c-1.89-1.39-4.51-0.57-6.18,1.3c-2.02,2.26-3.15,5.24-3.86,8.15
		c-0.66,2.69-1.04,5.97,0.6,8.4c1.58,2.35,4.55,3.19,7.25,2.82c2.91-0.4,5.4-2.42,7.19-4.65c0.58-0.72,1.21-1.6,1.15-2.55
		c0.08,0.19,0.17,0.37,0.28,0.55c-0.05,1.67-0.08,3.38,0.02,5.03c0.06,0.92,0.2,1.94,1.06,2.46c0.89,0.54,2.13,0.24,2.83-0.45
		c1.09-1.06,0.38-2.56,0.37-3.87c0-0.38-0.01-0.76-0.01-1.14c2,0.61,3.99,1.3,5.87,2.22c1.74,0.85,3.78,2.55,5.32,1.29
		c1.05,0.37,2.11,0.7,3.19,0.95c1.08,1.48,3.16,1.75,4.9,1.95c1.72,0.2,3.48,0.08,5.07-0.56c0.01,0.01,0.01,0.01,0.02,0.02
		c0.21,0.2,0.54,0.38,0.83,0.45c0.13,0.02,0.27,0.04,0.4,0.05c-0.15-0.1-0.14-0.1,0.01-0.01c0.55,0.24,0.99,0.72,1.49,1.06
		c0.49,1.04,1.79,1.62,3,1.06c1.47-0.67,1.97-2.97,2.6-4.31c0.7-1.49,1.45-2.95,2.21-4.42c1.7-0.06,3.4-0.1,5.1-0.12
		c0.11,1.54,0.16,3.08,0.23,4.63c0.08,1.78,0.33,5.23,3.05,4.52c2.25-0.59,1.54-3.14,1.41-4.81c-0.12-1.53-0.21-3.06-0.32-4.59
		c1.06-0.26,1.92-0.86,2.03-2.09c0.59-0.87,1.08-1.86,1.55-2.82c0.79,0.06,1.61-0.03,2.41-0.02c1.31,0.02,2.62,0.09,3.93,0.18
		c-0.36,2.58-0.9,5.36-1.41,7.94c-0.3,1.53-0.68,3.04-1.03,4.56c-0.28,1.2-0.28,2.61,1.08,3.12c3.61,1.33,3.92-4.54,4.31-6.63
		c0.55-2.94,1.07-5.89,1.48-8.86c1.41,0.03,2.87,0.16,4.19,0.51c0.79,0.21,1.46,0.56,2.13,0.57c0.29,0.3,0.6,0.59,0.94,0.84
		c0.11,0.64,0.52,1.19,1.3,1.45c0.22,0.07,0.44,0.12,0.67,0.16c-0.19,0.99-0.38,1.97-0.58,2.96c-0.04-0.01-0.08-0.01-0.15-0.02
		c-1.17-0.16-2.33-0.22-2.88,1.02c-0.42,0.94-0.18,2.08,0.67,2.7c0.46,0.33,1.04,0.49,1.65,0.56c-0.19,1.18-0.35,2.36-0.45,3.54
		c-0.12,1.53-0.03,3.22,1.18,4.32c1.24,1.12,3.22,1.59,4.82,1.89c1.84,0.35,3.77,0.25,5.49-0.54c0.3-0.14,0.6-0.32,0.89-0.52
		c0.37,0.3,0.76,0.6,1.07,0.96c0.13,0.15,0.25,0.32,0.38,0.48c0.27,1.38,2.07,2.19,3.31,2.64c3.86,1.41,8.93,0.99,11.23-2.88
		c2.53-4.25-1.75-7.44-4.93-9.48c-0.74-0.47-1.47-0.95-2.19-1.46c-0.41-0.29-1.57-1.03-1.42-1.65c0.12-0.49,1.39-0.79,1.8-0.92
		c0.99-0.3,2.01-0.48,3.05-0.55c0.95-0.06,2.17-0.16,3.07,0.26c0.7,0.32,1.22,1.06,2.23,0.78c1.14-0.31,1.55-1.78,1.52-2.83
		C290.59,313.97,289.54,313.39,288.49,313.06z M231.16,308.21c0.18-0.38,0.37-0.76,0.56-1.14c0.16,0.53,0.3,1.07,0.41,1.62
		c0.15,0.77,0.27,1.55,0.37,2.33c-0.9,0.02-1.81,0.05-2.71,0.07C230.25,310.14,230.7,309.17,231.16,308.21z M198.9,303.32
		c0.01,0.01,0.03,0.03,0.05,0.05c0.2,0.21,0.38,0.39,0.44,0.54c-0.03-0.07,0.04,0.43,0.04,0.17c0,0.08,0,0.15-0.01,0.22
		c0,0.02,0,0.03,0,0.04c-0.03,0.16-0.07,0.31-0.11,0.47c-0.02,0.06-0.02,0.08-0.02,0.09c-0.01,0.01-0.02,0.02-0.04,0.07
		c-0.08,0.15-0.16,0.3-0.25,0.44c-0.03,0.05-0.06,0.09-0.1,0.14c-0.02,0.02-0.06,0.07-0.08,0.09c-0.84,0.85-1.93,1.47-3.1,2.01
		c-0.8,0.37-1.54,0.65-2.42,0.97c-0.15,0.05-0.3,0.1-0.44,0.15c0.01-0.5,0.01-1.01,0.02-1.51c0.02-1,0.04-1.99,0.06-2.99
		c0.01-0.47,0.01-0.93,0.03-1.4c0.01-0.3,0.03-0.6,0.05-0.91c0-0.02,0-0.03,0-0.05c0.06,0,0.13,0,0.19,0.01
		c0.41,0.01,0.82,0.03,1.23,0.06c0.38,0.03,0.79,0.07,1.01,0.1c0.69,0.11,1.38,0.27,2.05,0.51c0.35,0.12,0.48,0.18,0.82,0.37
		c0.15,0.08,0.31,0.17,0.45,0.27C198.82,303.26,198.86,303.29,198.9,303.32z M184.98,312.35c-0.37,0.52-0.52,0.84-1.01,1.24
		c-0.6,0.49-1.18,0.97-1.83,1.39c-1.2,0.77-2.81,1.4-4.26,0.99c-3.2-0.92-1.77-5.83-1.07-8.01c0.45-1.41,1.07-3.06,2.15-4.12
		c0.29-0.29,0.63-0.63,0.93-0.41c0.41,0.31-0.09,1.39-0.08,1.79c0.02,1.54,1.82,2.27,2.92,1.23c0.77-0.73,1.09-1.75,1.16-2.79
		c0.76-0.3,1.51-0.74,2.2-0.96c0.91-0.28,1.84-0.44,2.77-0.57c-0.13,2.79-0.21,5.58-0.27,8.38c-0.39,0.55-0.52,1.21-0.42,1.87
		C187.52,310.95,185.79,311.23,184.98,312.35z M287.98,316.06C288.04,316.08,288.02,316.08,287.98,316.06L287.98,316.06z"/>
</g>
</svg>
